<svg width="48" height="43" viewBox="0 0 48 43" fill="none" xmlns="http://www.w3.org/2000/svg">
<path d="M48 21.7634C48 18.8387 45.6344 16.5161 42.7527 16.5161C41.3333 16.5161 40.043 17.0753 39.0968 17.9785C35.4839 15.3979 30.5376 13.7204 25.0323 13.5054L27.4409 2.23656L35.2688 3.91398C35.3548 5.89248 36.9892 7.48387 39.0108 7.48387C41.0753 7.48387 42.7527 5.80645 42.7527 3.74194C42.7527 1.67742 41.0753 0 39.0108 0C37.5484 0 36.2581 0.860216 35.6559 2.10753L26.9247 0.258067C26.6667 0.215056 26.4086 0.258065 26.2366 0.387097C26.0215 0.51613 25.8925 0.731184 25.8495 0.989249L23.1828 13.5484C17.5914 13.7204 12.5591 15.3979 8.90323 18.0215C7.95699 17.1183 6.66667 16.5591 5.24731 16.5591C2.32258 16.5591 0 18.9247 0 21.8065C0 23.957 1.29032 25.7634 3.09678 26.5806C3.01075 27.0968 2.96774 27.6129 2.96774 28.172C2.96774 36.2581 12.3871 42.8387 24 42.8387C35.6129 42.8387 45.0323 36.3011 45.0323 28.172C45.0323 27.6559 44.9892 27.0968 44.9032 26.5806C46.7097 25.7634 48 23.914 48 21.7634ZM11.957 25.5054C11.957 23.4409 13.6344 21.7634 15.6989 21.7634C17.7634 21.7634 19.4409 23.4409 19.4409 25.5054C19.4409 27.5699 17.7634 29.2473 15.6989 29.2473C13.6344 29.2903 11.957 27.5699 11.957 25.5054ZM32.9032 35.4409C30.3226 38.0215 25.4194 38.1936 24 38.1936C22.5376 38.1936 17.6344 37.9785 15.0968 35.4409C14.7097 35.0538 14.7097 34.4516 15.0968 34.0645C15.4839 33.6774 16.086 33.6774 16.4731 34.0645C18.1075 35.6989 21.5484 36.2581 24 36.2581C26.4516 36.2581 29.9355 35.6989 31.5269 34.0645C31.914 33.6774 32.5161 33.6774 32.9032 34.0645C33.2473 34.4516 33.2473 35.0538 32.9032 35.4409ZM32.2151 29.2903C30.1505 29.2903 28.4731 27.6129 28.4731 25.5484C28.4731 23.4839 30.1505 21.8065 32.2151 21.8065C34.2796 21.8065 35.957 23.4839 35.957 25.5484C35.957 27.5699 34.2796 29.2903 32.2151 29.2903Z" fill="black"/>
</svg>
