<svg width="48" height="40" viewBox="0 0 48 40" fill="none" xmlns="http://www.w3.org/2000/svg">
<path d="M43.0859 9.70971C43.1152 10.1329 43.1152 10.556 43.1152 10.9831C43.1152 23.9956 33.209 39.0031 15.0952 39.0031V38.9953C9.7443 39.0031 4.50457 37.4703 0 34.5804C0.778062 34.674 1.56002 34.7208 2.34394 34.7228C6.77831 34.7267 11.0859 33.2388 14.5745 30.499C10.3605 30.419 6.6652 27.6714 5.37428 23.6602C6.85046 23.9449 8.37148 23.8864 9.82035 23.4906C5.22608 22.5624 1.92078 18.5258 1.92078 13.8379C1.92078 13.795 1.92078 13.7541 1.92078 13.7131C3.2897 14.4756 4.82243 14.8987 6.39025 14.9455C2.06313 12.0537 0.729311 6.29716 3.34235 1.79649C8.34223 7.94884 15.7192 11.689 23.6383 12.0849C22.8446 8.6645 23.9288 5.08034 26.4873 2.67595C30.4536 -1.0525 36.6918 -0.861402 40.4202 3.10301C42.6257 2.66815 44.7396 1.85889 46.674 0.712273C45.9388 2.99186 44.4002 4.92824 42.3449 6.15871C44.2969 5.9286 46.204 5.406 48 4.60843C46.6779 6.58966 45.0126 8.31544 43.0859 9.70971Z" fill="black"/>
</svg>
