<svg width="52" height="44" viewBox="0 0 52 44" fill="none" xmlns="http://www.w3.org/2000/svg">
<path fill-rule="evenodd" clip-rule="evenodd" d="M49.13 1.758C48.372 4.192 46.763 6.233 44.665 7.517C46.717 7.27 48.676 6.708 50.496 5.883C49.14 7.971 47.418 9.801 45.433 11.271C45.449 11.714 45.459 12.168 45.459 12.621C45.459 26.383 35.245 42.247 16.565 42.247C10.832 42.247 5.496 40.52 1 37.571C1.794 37.664 2.603 37.715 3.423 37.715C8.177 37.715 12.559 36.05 16.034 33.255C11.59 33.173 7.842 30.162 6.548 26.027C7.166 26.15 7.806 26.212 8.46 26.212C9.388 26.212 10.286 26.089 11.136 25.846C6.486 24.892 2.985 20.68 2.985 15.632V15.509C4.356 16.282 5.929 16.756 7.589 16.803C4.862 14.936 3.073 11.75 3.073 8.141C3.073 6.233 3.573 4.439 4.444 2.897C9.455 9.203 16.937 13.348 25.377 13.781C25.202 13.018 25.114 12.224 25.114 11.41C25.114 5.661 29.661 1 35.266 1C38.189 1 40.829 2.258 42.68 4.284C44.995 3.82 47.166 2.954 49.13 1.758Z" stroke="black" stroke-width="2" stroke-linejoin="round"/>
</svg>
