<svg width="512" height="512" viewBox="0 0 512 512" fill="none" xmlns="http://www.w3.org/2000/svg">
<rect width="512" height="512" rx="256" fill="#191C1E"/>
<rect width="512" height="512" rx="256" fill="white"/>
<path d="M310.479 372.052C298.263 421.704 278.412 454 256 454C233.588 454 213.737 421.705 201.521 372.054C179.166 377.336 160.285 374.874 148.707 363.296C137.129 351.718 134.667 332.835 139.95 310.48C90.2969 298.264 58 278.412 58 256C58 233.587 90.2969 213.736 139.95 201.52C134.667 179.165 137.129 160.282 148.707 148.704C160.285 137.126 179.166 134.664 201.521 139.946C213.737 90.2954 233.588 58 256 58C278.412 58 298.263 90.2961 310.479 139.948C332.836 134.664 351.72 137.125 363.299 148.704C374.877 160.283 377.339 179.166 372.056 201.521C421.705 213.738 454 233.588 454 256C454 278.412 421.705 298.262 372.056 310.479C377.339 332.834 374.877 351.717 363.299 363.296C351.72 374.875 332.836 377.336 310.479 372.052Z" fill="white"/>
<path d="M310.479 372.052C298.263 421.704 278.412 454 256 454C233.588 454 213.737 421.705 201.521 372.054C179.166 377.336 160.285 374.874 148.707 363.296C137.129 351.718 134.667 332.835 139.95 310.48C90.2969 298.264 58 278.412 58 256C58 233.587 90.2969 213.736 139.95 201.52C134.667 179.165 137.129 160.282 148.707 148.704C160.285 137.126 179.166 134.664 201.521 139.946C213.737 90.2954 233.588 58 256 58C278.412 58 298.263 90.2961 310.479 139.948C332.836 134.664 351.72 137.125 363.299 148.704C374.877 160.283 377.339 179.166 372.056 201.521C421.705 213.738 454 233.588 454 256C454 278.412 421.705 298.262 372.056 310.479C377.339 332.834 374.877 351.717 363.299 363.296C351.72 374.875 332.836 377.336 310.479 372.052Z" fill="#6C4AB0"/>
<path d="M310.479 372.052C298.263 421.704 278.412 454 256 454C233.588 454 213.737 421.705 201.521 372.054C179.166 377.336 160.285 374.874 148.707 363.296C137.129 351.718 134.667 332.835 139.95 310.48C90.2969 298.264 58 278.412 58 256C58 233.587 90.2969 213.736 139.95 201.52C134.667 179.165 137.129 160.282 148.707 148.704C160.285 137.126 179.166 134.664 201.521 139.946C213.737 90.2954 233.588 58 256 58C278.412 58 298.263 90.2961 310.479 139.948C332.836 134.664 351.72 137.125 363.299 148.704C374.877 160.283 377.339 179.166 372.056 201.521C421.705 213.738 454 233.588 454 256C454 278.412 421.705 298.262 372.056 310.479C377.339 332.834 374.877 351.717 363.299 363.296C351.72 374.875 332.836 377.336 310.479 372.052Z" fill="url(#paint0_radial_64_184)"/>
<defs>
<radialGradient id="paint0_radial_64_184" cx="0" cy="0" r="1" gradientUnits="userSpaceOnUse" gradientTransform="translate(256 256.126) rotate(90) scale(340.295)">
<stop stop-color="#D1C2F1" stop-opacity="0.5"/>
<stop offset="0.65625" stop-color="#6C4AB0"/>
</radialGradient>
</defs>
</svg>
