<svg width="396" height="396" viewBox="0 0 396 396" fill="none" xmlns="http://www.w3.org/2000/svg">
<path d="M252.479 314.052C240.263 363.704 220.412 396 198 396C175.588 396 155.737 363.705 143.521 314.054C121.166 319.336 102.285 316.874 90.707 305.296C79.1286 293.718 76.6668 274.835 81.9496 252.48C32.2969 240.264 0 220.412 0 198C0 175.587 32.2969 155.736 81.9496 143.52C76.6668 121.165 79.1286 102.282 90.707 90.704C102.285 79.126 121.166 76.6639 143.521 81.946C155.737 32.2954 175.588 0 198 0C220.412 0 240.263 32.2961 252.479 81.9477C274.836 76.6639 293.72 79.1254 305.299 90.7043C316.877 102.283 319.339 121.166 314.056 143.521C363.705 155.738 396 175.588 396 198C396 220.412 363.705 240.262 314.056 252.479C319.339 274.834 316.877 293.717 305.299 305.296C293.72 316.875 274.836 319.336 252.479 314.052Z" fill="white"/>
<path d="M252.479 314.052C240.263 363.704 220.412 396 198 396C175.588 396 155.737 363.705 143.521 314.054C121.166 319.336 102.285 316.874 90.707 305.296C79.1286 293.718 76.6668 274.835 81.9496 252.48C32.2969 240.264 0 220.412 0 198C0 175.587 32.2969 155.736 81.9496 143.52C76.6668 121.165 79.1286 102.282 90.707 90.704C102.285 79.126 121.166 76.6639 143.521 81.946C155.737 32.2954 175.588 0 198 0C220.412 0 240.263 32.2961 252.479 81.9477C274.836 76.6639 293.72 79.1254 305.299 90.7043C316.877 102.283 319.339 121.166 314.056 143.521C363.705 155.738 396 175.588 396 198C396 220.412 363.705 240.262 314.056 252.479C319.339 274.834 316.877 293.717 305.299 305.296C293.72 316.875 274.836 319.336 252.479 314.052Z" fill="#6C4AB0"/>
<path d="M252.479 314.052C240.263 363.704 220.412 396 198 396C175.588 396 155.737 363.705 143.521 314.054C121.166 319.336 102.285 316.874 90.707 305.296C79.1286 293.718 76.6668 274.835 81.9496 252.48C32.2969 240.264 0 220.412 0 198C0 175.587 32.2969 155.736 81.9496 143.52C76.6668 121.165 79.1286 102.282 90.707 90.704C102.285 79.126 121.166 76.6639 143.521 81.946C155.737 32.2954 175.588 0 198 0C220.412 0 240.263 32.2961 252.479 81.9477C274.836 76.6639 293.72 79.1254 305.299 90.7043C316.877 102.283 319.339 121.166 314.056 143.521C363.705 155.738 396 175.588 396 198C396 220.412 363.705 240.262 314.056 252.479C319.339 274.834 316.877 293.717 305.299 305.296C293.72 316.875 274.836 319.336 252.479 314.052Z" fill="url(#paint0_radial_402_12)"/>
<defs>
<radialGradient id="paint0_radial_402_12" cx="0" cy="0" r="1" gradientUnits="userSpaceOnUse" gradientTransform="translate(198 198.126) rotate(90) scale(340.295)">
<stop stop-color="#D1C2F1" stop-opacity="0.5"/>
<stop offset="0.65625" stop-color="#6C4AB0"/>
</radialGradient>
</defs>
</svg>
