<svg width="500" height="500" viewBox="0 0 500 500" fill="none" xmlns="http://www.w3.org/2000/svg">
<path d="M320.512 389.232C316.507 388.285 312.488 390.743 311.504 394.739C303.899 425.648 294.034 450.625 282.935 467.684C271.654 485.022 260.278 492.5 250 492.5C239.722 492.5 228.346 485.023 217.065 467.685C205.966 450.626 196.101 425.65 188.496 394.741C187.513 390.745 183.493 388.287 179.488 389.234C152.296 395.659 131.739 392.078 119.832 380.172C107.926 368.265 104.345 347.706 110.771 320.513C111.717 316.508 109.26 312.488 105.264 311.505C74.3536 303.9 49.376 294.035 32.3162 282.935C14.9778 271.654 7.5 260.278 7.5 250C7.5 239.722 14.9778 228.345 32.3162 217.065C49.376 205.965 74.3535 196.1 105.264 188.495C109.26 187.512 111.717 183.492 110.771 179.487C104.345 152.294 107.926 131.735 119.832 119.828C131.739 107.922 152.296 104.341 179.488 110.766C183.493 111.713 187.513 109.255 188.496 105.259C196.101 74.3504 205.966 49.374 217.065 32.315C228.346 14.9774 239.722 7.5 250 7.5C260.278 7.5 271.654 14.9776 282.935 32.3156C294.034 49.3749 303.899 74.3519 311.504 105.261C312.488 109.257 316.507 111.715 320.512 110.768C347.707 104.341 368.268 107.922 380.175 119.829C392.082 131.736 395.663 152.295 389.236 179.489C388.29 183.494 390.747 187.513 394.743 188.496C425.651 196.101 450.627 205.967 467.686 217.066C485.023 228.346 492.5 239.722 492.5 250C492.5 260.278 485.023 271.653 467.686 282.934C450.627 294.033 425.651 303.898 394.743 311.503C390.747 312.487 388.29 316.506 389.236 320.511C395.663 347.705 392.082 368.264 380.175 380.171C368.268 392.078 347.707 395.659 320.512 389.232Z" stroke="black" stroke-width="15" stroke-linejoin="round"/>
</svg>
