<svg width="100" height="100" viewBox="0 0 100 100" fill="none" xmlns="http://www.w3.org/2000/svg">
<path d="M50 66.978C77.6142 66.978 100 59.3767 100 50C100 40.6233 77.6142 33.022 50 33.022C22.3858 33.022 0 40.6233 0 50C0 59.3767 22.3858 66.978 50 66.978Z" fill="black"/>
<path d="M50 100C59.3767 100 66.978 77.6142 66.978 50C66.978 22.3858 59.3767 0 50 0C40.6233 0 33.022 22.3858 33.022 50C33.022 77.6142 40.6233 100 50 100Z" fill="black"/>
<path d="M62.8064 62.8058C77.7705 47.8417 84.168 29.9776 77.0956 22.9052C70.0232 15.8328 52.1591 22.2303 37.195 37.1944C22.2309 52.1585 15.8334 70.0226 22.9058 77.095C29.9782 84.1674 47.8423 77.7699 62.8064 62.8058Z" fill="black"/>
<path d="M77.0956 77.0948C84.168 70.0224 77.7705 52.1583 62.8064 37.1942C47.8423 22.2301 29.9782 15.8326 22.9058 22.905C15.8334 29.9774 22.2309 47.8415 37.195 62.8056C52.1591 77.7697 70.0232 84.1672 77.0956 77.0948Z" fill="black"/>
</svg>
