<svg width="100" height="100" viewBox="0 0 100 100" fill="none" xmlns="http://www.w3.org/2000/svg">
<path d="M64.1025 77.8464C63.3015 77.6571 62.4975 78.1485 62.3009 78.9478C60.7799 85.1296 58.8068 90.125 56.5869 93.5369C54.3308 97.0045 52.0556 98.5 50 98.5C47.9444 98.5 45.6692 97.0045 43.4131 93.537C41.1932 90.1252 39.2202 85.1299 37.6992 78.9482C37.5025 78.149 36.6986 77.6575 35.8977 77.8468C30.4593 79.1318 26.3477 78.4156 23.9665 76.0343C21.5851 73.6529 20.8689 69.5412 22.1541 64.1025C22.3434 63.3015 21.8519 62.4976 21.0527 62.301C14.8707 60.78 9.87521 58.8069 6.46325 56.587C2.99555 54.3309 1.5 52.0556 1.5 50C1.5 47.9443 2.99555 45.6691 6.46324 43.4129C9.8752 41.193 14.8707 39.2199 21.0527 37.6989C21.8519 37.5023 22.3434 36.6984 22.1541 35.8974C20.8689 30.4588 21.5851 26.347 23.9665 23.9657C26.3477 21.5844 30.4593 20.8682 35.8977 22.1532C36.6986 22.3425 37.5025 21.851 37.6992 21.0518C39.2202 14.8701 41.1932 9.8748 43.4131 6.463C45.6692 2.99548 47.9444 1.5 50 1.5C52.0556 1.5 54.3308 2.99551 56.5869 6.46312C58.8068 9.87499 60.7799 14.8704 62.3009 21.0522C62.4975 21.8515 63.3015 22.343 64.1025 22.1536C69.5415 20.8682 73.6535 21.5843 76.035 23.9658C78.4164 26.3472 79.1325 30.459 77.8473 35.8977C77.658 36.6987 78.1494 37.5026 78.9487 37.6993C85.1303 39.2203 90.1254 41.1933 93.5371 43.4132C97.0046 45.6693 98.5 47.9444 98.5 50C98.5 52.0556 97.0046 54.3307 93.5371 56.5868C90.1254 58.8066 85.1302 60.7797 78.9486 62.3007C78.1494 62.4973 77.658 63.3012 77.8472 64.1022C79.1325 69.541 78.4164 73.6528 76.035 76.0342C73.6535 78.4157 69.5415 79.1318 64.1025 77.8464Z" stroke="black" stroke-width="3" stroke-linejoin="round"/>
</svg>
